<svg width="95" height="82" viewBox="0 0 95 82" fill="none" xmlns="http://www.w3.org/2000/svg">
<path d="M47.3784 0.841675C21.5059 0.841675 0.531525 18.9002 0.531525 41.1765C0.531525 63.4529 21.5059 81.5114 47.3784 81.5114C73.2508 81.5114 94.2252 63.4529 94.2252 41.1765C94.2252 18.9002 73.2508 0.841675 47.3784 0.841675ZM63.5698 43.3146L40.1464 55.9192C39.6724 56.174 39.1335 56.3021 38.5946 56.3021C38.1064 56.3021 37.6174 56.1975 37.1749 55.9857C36.2442 55.5414 35.6667 54.6982 35.6667 53.7812V28.5719C35.6667 27.6549 36.2442 26.8116 37.1749 26.3673C38.1056 25.9205 39.2437 25.9476 40.1464 26.4338L63.5698 39.0385C64.4255 39.5001 64.9459 40.3076 64.9459 41.1765C64.9459 42.0455 64.4255 42.8531 63.5698 43.3146Z" fill="#D4C17F"/>
</svg>
